<?xml version="1.0" encoding="utf-8"?>
<svg xmlns="http://www.w3.org/2000/svg" width="630" height="655" viewBox="-1953 -1996.73 3820.325 2844.414" xmlns:bx="https://boxy-svg.com">
  <defs>
    <bx:guide x="0.392" y="-1297.238" angle="0"/>
    <bx:guide x="-1953" y="-1639.939" angle="0"/>
  </defs>
  <title>maple leaf from the flag of Canada</title>
  <g>
    <rect x="-2183.9" y="-3435.1" width="1953.37" height="65.102" style="stroke: rgb(0, 0, 0); fill: color(prophoto-rgb 0.238 0.188 0.577);" transform="matrix(0.999999, -0.00105, 0, 1.000001, 230.89122, 1444.736694)"/>
    <rect x="-2183.9" y="-3435.1" width="1953.37" height="65.102" style="stroke: rgb(0, 0, 0); fill: color(prophoto-rgb 0.238 0.188 0.577); stroke-width: 1;" transform="matrix(0.999999, -0.00105, 0, 1.000001, 230.921661, 4196.091797)"/>
    <rect x="-2183.9" y="-3435.1" width="1953.37" height="65.102" style="stroke: rgb(0, 0, 0); fill: color(prophoto-rgb 0.238 0.188 0.577); stroke-width: 1;" transform="matrix(0.999999, -0.00105, 0, 1.000001, 230.897552, 1719.872192)"/>
    <rect x="-2183.9" y="-3435.1" width="1953.37" height="65.102" style="stroke: rgb(0, 0, 0); fill: color(prophoto-rgb 0.238 0.188 0.577); stroke-width: 1;" transform="matrix(0.999999, -0.00105, 0, 1.000001, 230.921661, 1995.00769)"/>
    <rect x="-2183.9" y="-3435.1" width="1953.37" height="65.102" style="stroke: rgb(0, 0, 0); fill: color(prophoto-rgb 0.238 0.188 0.577); stroke-width: 1;" transform="matrix(0.999999, -0.00105, 0, 1.000001, 230.921646, 2270.143311)"/>
    <rect x="-2183.9" y="-3435.1" width="1953.37" height="65.102" style="stroke: rgb(0, 0, 0); fill: color(prophoto-rgb 0.238 0.188 0.577); stroke-width: 1;" transform="matrix(0.999999, -0.00105, 0, 1.000001, 230.921646, 2545.278809)"/>
    <rect x="-2183.9" y="-3435.1" width="1953.37" height="65.102" style="stroke: rgb(0, 0, 0); fill: color(prophoto-rgb 0.238 0.188 0.577); stroke-width: 1;" transform="matrix(0.999999, -0.00105, 0, 1.000001, 230.921677, 2820.414307)"/>
    <rect x="-2183.9" y="-3435.1" width="1953.37" height="65.102" style="stroke: rgb(0, 0, 0); fill: color(prophoto-rgb 0.238 0.188 0.577); stroke-width: 1;" transform="matrix(0.999999, -0.00105, 0, 1.000001, 230.897552, 3095.549805)"/>
    <rect x="-2183.9" y="-3435.1" width="1953.37" height="65.102" style="stroke: rgb(0, 0, 0); fill: color(prophoto-rgb 0.238 0.188 0.577); stroke-width: 1;" transform="matrix(0.999999, -0.00105, 0, 1.000001, 230.921661, 3370.685303)"/>
    <rect x="-2183.9" y="-3435.1" width="1953.37" height="65.102" style="stroke: rgb(0, 0, 0); fill: color(prophoto-rgb 0.238 0.188 0.577); stroke-width: 1;" transform="matrix(0.999999, -0.00105, 0, 1.000001, 230.921646, 3645.820801)"/>
    <rect x="-2183.9" y="-3435.1" width="1953.37" height="65.102" style="stroke: rgb(0, 0, 0); fill: color(prophoto-rgb 0.238 0.188 0.577); stroke-width: 1;" transform="matrix(0.999999, -0.00105, 0, 1.000001, 230.921677, 3920.956299)"/>
  </g>
  <path fill="#f00" d="M 919 827 C 897.392 844.542 -897.392 844.542 -919 827 L -1860 65 L -1648 -34 C -1618.375 -48 -1603.801 -81.861 -1614 -113 L -1800 -685 L -1258 -570 C -1227.725 -563.688 -1197.195 -579.58 -1185 -608 L -1080 -855 L -657 -401 C -622.574 -364.688 -561.749 -379.261 -547.515 -427.231 C -544.552 -437.217 -544.032 -447.77 -546 -458 L -750 -1510 L -423 -1321 C -390.566 -1301.991 -348.818 -1314.378 -332 -1348 L 0 -2000 L 332 -1348 C 348.818 -1314.378 390.566 -1301.991 423 -1321 L 750 -1510 L 546 -458 C 536.548 -408.864 583.831 -367.921 631.11 -384.303 C 640.954 -387.714 649.833 -393.44 657 -401 L 1080 -855 L 1185 -608 C 1197.195 -579.58 1227.725 -563.688 1258 -570 L 1800 -685 L 1614 -113 C 1603.801 -81.861 1618.375 -48 1648 -34 L 1860 65 L 919 827 Z"/>
</svg>